# xmcd
#
# Track frame offsets:
#	150
#	12489
#	28444
#	42571
#	59932
#	74522
#	89637
#	103845
#	120686
#	136172
#	149169
#	164115
#	179098
#	191890
#	204198
#	215671
#	229861
#	239242
#
# Disc length: 3386 seconds
#
# Revision: 0
# Processed by: cddbd v1.5.2PL0 Copyright (c) Steve Scherf et al.
# Submitted via: EasyCDDAExtractor 10.2.0.1
#
DISCID=3c0d3812
DTITLE=Irmãos Antunes - Paixão Mineira
DYEAR=2007
DGENRE=Sertanejo
TTITLE0=Amargurado
TTITLE1=Paixão Mineira
TTITLE2=Troféu de dor
TTITLE3=Minha derrota
TTITLE4=Meu encanto
TTITLE5=Porta do mundo
TTITLE6=Telefone no ar
TTITLE7=Último adeus
TTITLE8=Carteiro inimigo
TTITLE9=Arrependimento
TTITLE10=Tô ficando com ela
TTITLE11=Blusa vermelha
TTITLE12=Faz isso não paixão
TTITLE13=Instrumento dourado
TTITLE14=Morena de quatorze anos
TTITLE15=Telefone mudo
TTITLE16=Vou gastar o barão
TTITLE17=Meu reino encantado
EXTD=
EXTT0=
EXTT1=
EXTT2=
EXTT3=
EXTT4=
EXTT5=
EXTT6=
EXTT7=
EXTT8=
EXTT9=
EXTT10=
EXTT11=
EXTT12=
EXTT13=
EXTT14=
EXTT15=
EXTT16=
EXTT17=
PLAYORDER=
